umbra-6.ufo
<glyph name="quotedbl" format="1">
  <advance width="390"/>
  <unicode hex="0022"/>
  <outline>
    <contour>
      <point x="75" y="398" type="line"/>
      <point x="45" y="608" type="line"/>
      <point x="175" y="608" type="line"/>
      <point x="145" y="398" type="line"/>
    </contour>
    <contour>
      <point x="245" y="398" type="line"/>
      <point x="215" y="608" type="line"/>
      <point x="345" y="608" type="line"/>
      <point x="315" y="398" type="line"/>
    </contour>
  </outline>
</glyph>
<glyph name="numbersign" format="1">
  <advance width="600"/>
  <unicode hex="0023"/>
  <outline>
    <contour>
      <point x="20" y="223" type="line"/>
      <point x="20" y="318" type="line"/>
      <point x="143" y="318" type="line"/>
      <point x="157" y="398" type="line"/>
      <point x="70" y="398" type="line"/>
      <point x="70" y="493" type="line"/>
      <point x="174" y="493" type="line"/>
      <point x="195" y="608" type="line"/>
      <point x="300" y="608" type="line"/>
      <point x="279" y="493" type="line"/>
      <point x="359" y="493" type="line"/>
      <point x="380" y="608" type="line"/>
      <point x="485" y="608" type="line"/>
      <point x="464" y="493" type="line"/>
      <point x="570" y="493" type="line"/>
      <point x="570" y="398" type="line"/>
      <point x="447" y="398" type="line"/>
      <point x="433" y="318" type="line"/>
      <point x="520" y="318" type="line"/>
      <point x="520" y="223" type="line"/>
      <point x="416" y="223" type="line"/>
      <point x="395" y="108" type="line"/>
      <point x="290" y="108" type="line"/>
      <point x="311" y="223" type="line"/>
      <point x="231" y="223" type="line"/>
      <point x="210" y="108" type="line"/>
      <point x="105" y="108" type="line"/>
      <point x="126" y="223" type="line"/>
    </contour>
    <contour>
      <point x="328" y="318" type="line"/>
      <point x="342" y="398" type="line"/>
      <point x="262" y="398" type="line"/>
      <point x="248" y="318" type="line"/>
    </contour>
  </outline>
</glyph>
<glyph name="percent" format="1">
  <advance width="641"/>
  <unicode hex="0025"/>
  <outline>
    <contour>
      <point x="100" y="108" type="line"/>
      <point x="410" y="608" type="line"/>
      <point x="540" y="608" type="line"/>
      <point x="230" y="108" type="line"/>
    </contour>
    <contour>
      <point x="150" y="416" type="line"/>
      <point x="45" y="521" type="line"/>
      <point x="150" y="627" type="line"/>
      <point x="256" y="521" type="line"/>
    </contour>
    <contour>
      <point x="490" y="80" type="line"/>
      <point x="385" y="185" type="line"/>
      <point x="490" y="291" type="line"/>
      <point x="596" y="185" type="line"/>
    </contour>
  </outline>
</glyph>
<glyph name="comma" format="1">
  <advance width="220"/>
  <unicode hex="002C"/>
  <outline>
    <contour>
      <point x="45" y="-12" type="line"/>
      <point x="45" y="248" type="line"/>
      <point x="175" y="248" type="line"/>
      <point x="175" y="108" type="line"/>
    </contour>
  </outline>
</glyph>
<glyph name="hyphen" format="1">
  <advance width="560"/>
  <unicode hex="002D"/>
  <outline>
    <contour>
      <point x="85" y="378" type="line"/>
      <point x="85" y="488" type="line"/>
      <point x="475" y="488" type="line"/>
      <point x="475" y="378" type="line"/>
    </contour>
  </outline>
</glyph>
<glyph name="nine" format="1">
  <advance width="474"/>
  <unicode hex="0039"/>
  <outline>
    <contour>
      <point x="299" y="446" type="curve" smooth="yes"/>
      <point x="299" y="474"/>
      <point x="280" y="503"/>
      <point x="232" y="503" type="curve" smooth="yes"/>
      <point x="184" y="503"/>
      <point x="165" y="474"/>
      <point x="165" y="446" type="curve" smooth="yes"/>
      <point x="165" y="418"/>
      <point x="184" y="389"/>
      <point x="232" y="389" type="curve" smooth="yes"/>
      <point x="280" y="389"/>
      <point x="299" y="418"/>
    </contour>
    <contour>
      <point x="35" y="446" type="curve" smooth="yes"/>
      <point x="35" y="553"/>
      <point x="110" y="618"/>
      <point x="227" y="618" type="curve" smooth="yes"/>
      <point x="384" y="618"/>
      <point x="439" y="493"/>
      <point x="439" y="376" type="curve" smooth="yes"/>
      <point x="439" y="249"/>
      <point x="363" y="98"/>
      <point x="226" y="98" type="curve" smooth="yes"/>
      <point x="149" y="98"/>
      <point x="79" y="133"/>
      <point x="39" y="180" type="curve"/>
      <point x="80" y="286" type="line"/>
      <point x="120" y="248"/>
      <point x="157" y="218"/>
      <point x="205" y="218" type="curve" smooth="yes"/>
      <point x="273" y="218"/>
      <point x="302" y="277"/>
      <point x="308" y="345" type="curve"/>
      <point x="278" y="308"/>
      <point x="232" y="294"/>
      <point x="197" y="294" type="curve" smooth="yes"/>
      <point x="130" y="294"/>
      <point x="35" y="339"/>
    </contour>
  </outline>
</glyph>
<glyph name="semicolon" format="1">
  <advance width="291"/>
  <unicode hex="003B"/>
  <outline>
    <contour>
      <point x="85" y="-12" type="line"/>
      <point x="85" y="248" type="line"/>
      <point x="215" y="248" type="line"/>
      <point x="215" y="108" type="line"/>
    </contour>
    <contour>
      <point x="145" y="365" type="line"/>
      <point x="40" y="470" type="line"/>
      <point x="145" y="576" type="line"/>
      <point x="251" y="470" type="line"/>
    </contour>
  </outline>
</glyph>
<glyph name="question" format="1">
  <advance width="464"/>
  <unicode hex="003F"/>
  <outline>
    <contour>
      <point x="167" y="312" type="line"/>
      <point x="137" y="412" type="line"/>
      <point x="207" y="412" type="line" smooth="yes"/>
      <point x="255" y="412"/>
      <point x="264" y="437"/>
      <point x="264" y="465" type="curve" smooth="yes"/>
      <point x="264" y="488"/>
      <point x="250" y="503"/>
      <point x="222" y="503" type="curve" smooth="yes"/>
      <point x="174" y="503"/>
      <point x="126" y="464"/>
      <point x="86" y="426" type="curve"/>
      <point x="46" y="536" type="line"/>
      <point x="96" y="593"/>
      <point x="156" y="623"/>
      <point x="223" y="623" type="curve" smooth="yes"/>
      <point x="330" y="623"/>
      <point x="415" y="578"/>
      <point x="415" y="481" type="curve" smooth="yes"/>
      <point x="415" y="406"/>
      <point x="367" y="373"/>
      <point x="292" y="362" type="curve"/>
      <point x="277" y="312" type="line"/>
    </contour>
    <contour>
      <point x="225" y="80" type="line"/>
      <point x="120" y="185" type="line"/>
      <point x="225" y="291" type="line"/>
      <point x="331" y="185" type="line"/>
    </contour>
  </outline>
</glyph>
<glyph name="A" format="1">
  <advance width="580"/>
  <unicode hex="0041"/>
  <outline>
    <contour>
      <point x="10" y="108" type="line"/>
      <point x="210" y="608" type="line"/>
      <point x="370" y="608" type="line"/>
      <point x="570" y="108" type="line"/>
      <point x="420" y="108" type="line"/>
      <point x="389" y="193" type="line"/>
      <point x="191" y="193" type="line"/>
      <point x="160" y="108" type="line"/>
    </contour>
    <contour>
      <point x="290" y="469" type="line"/>
      <point x="232" y="308" type="line"/>
      <point x="348" y="308" type="line"/>
    </contour>
  </outline>
</glyph>
<glyph name="C" format="1">
  <advance width="515"/>
  <unicode hex="0043"/>
  <outline>
    <contour>
      <point x="175" y="358" type="curve" smooth="yes"/>
      <point x="175" y="265"/>
      <point x="248" y="213"/>
      <point x="305" y="213" type="curve" smooth="yes"/>
      <point x="366" y="213"/>
      <point x="410" y="236"/>
      <point x="435" y="269" type="curve"/>
      <point x="475" y="142" type="line"/>
      <point x="443" y="110"/>
      <point x="396" y="88"/>
      <point x="315" y="88" type="curve" smooth="yes"/>
      <point x="140" y="88"/>
      <point x="30" y="209"/>
      <point x="30" y="358" type="curve" smooth="yes"/>
      <point x="30" y="507"/>
      <point x="140" y="628"/>
      <point x="315" y="628" type="curve" smooth="yes"/>
      <point x="396" y="628"/>
      <point x="443" y="606"/>
      <point x="475" y="574" type="curve"/>
      <point x="435" y="447" type="line"/>
      <point x="410" y="480"/>
      <point x="366" y="503"/>
      <point x="305" y="503" type="curve" smooth="yes"/>
      <point x="248" y="503"/>
      <point x="175" y="451"/>
    </contour>
  </outline>
</glyph>
<glyph name="F" format="1">
  <advance width="450"/>
  <unicode hex="0046"/>
  <outline>
    <contour>
      <point x="45" y="108" type="line"/>
      <point x="45" y="608" type="line"/>
      <point x="172" y="608"/>
      <point x="298" y="608"/>
      <point x="425" y="608" type="curve"/>
      <point x="425" y="488" type="line"/>
      <point x="185" y="488" type="line"/>
      <point x="185" y="398" type="line"/>
      <point x="395" y="398" type="line"/>
      <point x="395" y="273" type="line"/>
      <point x="185" y="273" type="line"/>
      <point x="185" y="108" type="line"/>
    </contour>
  </outline>
</glyph>
<glyph name="G" format="1">
  <advance width="555"/>
  <unicode hex="0047"/>
  <outline>
    <contour>
      <point x="175" y="358" type="curve" smooth="yes"/>
      <point x="175" y="265"/>
      <point x="248" y="213"/>
      <point x="305" y="213" type="curve" smooth="yes"/>
      <point x="339" y="213"/>
      <point x="367" y="220"/>
      <point x="390" y="232" type="curve"/>
      <point x="390" y="303" type="line"/>
      <point x="280" y="303" type="line"/>
      <point x="280" y="398" type="line"/>
      <point x="520" y="398" type="line"/>
      <point x="520" y="182" type="line"/>
      <point x="468" y="130"/>
      <point x="386" y="88"/>
      <point x="305" y="88" type="curve" smooth="yes"/>
      <point x="150" y="88"/>
      <point x="30" y="209"/>
      <point x="30" y="358" type="curve" smooth="yes"/>
      <point x="30" y="507"/>
      <point x="140" y="628"/>
      <point x="315" y="628" type="curve" smooth="yes"/>
      <point x="396" y="628"/>
      <point x="443" y="606"/>
      <point x="475" y="574" type="curve"/>
      <point x="435" y="447" type="line"/>
      <point x="410" y="480"/>
      <point x="366" y="503"/>
      <point x="305" y="503" type="curve" smooth="yes"/>
      <point x="248" y="503"/>
      <point x="175" y="451"/>
    </contour>
  </outline>
</glyph>
<glyph name="L" format="1">
  <advance width="445"/>
  <unicode hex="004C"/>
  <outline>
    <contour>
      <point x="45" y="108" type="curve"/>
      <point x="45" y="608" type="line"/>
      <point x="185" y="608" type="line"/>
      <point x="185" y="228" type="line"/>
      <point x="425" y="228" type="line"/>
      <point x="425" y="108" type="line"/>
      <point x="298" y="108"/>
      <point x="172" y="108"/>
    </contour>
  </outline>
</glyph>
<glyph name="P" format="1">
  <advance width="487"/>
  <unicode hex="0050"/>
  <outline>
    <contour>
      <point x="45" y="108" type="line"/>
      <point x="45" y="608" type="line"/>
      <point x="118" y="608"/>
      <point x="192" y="608"/>
      <point x="265" y="608" type="curve" smooth="yes"/>
      <point x="382" y="608"/>
      <point x="467" y="533"/>
      <point x="467" y="426" type="curve" smooth="yes"/>
      <point x="467" y="309"/>
      <point x="382" y="243"/>
      <point x="265" y="243" type="curve" smooth="yes"/>
      <point x="185" y="243" type="line"/>
      <point x="185" y="108" type="line"/>
    </contour>
    <contour>
      <point x="255" y="493" type="curve" smooth="yes"/>
      <point x="185" y="493" type="line"/>
      <point x="185" y="358" type="line"/>
      <point x="255" y="358" type="line" smooth="yes"/>
      <point x="293" y="358"/>
      <point x="322" y="378"/>
      <point x="322" y="426" type="curve" smooth="yes"/>
      <point x="322" y="474"/>
      <point x="293" y="493"/>
    </contour>
  </outline>
</glyph>
<glyph name="R" format="1">
  <advance width="515"/>
  <unicode hex="0052"/>
  <outline>
    <contour>
      <point x="45" y="108" type="line"/>
      <point x="45" y="608" type="line"/>
      <point x="118" y="608"/>
      <point x="192" y="608"/>
      <point x="265" y="608" type="curve" smooth="yes"/>
      <point x="382" y="608"/>
      <point x="467" y="563"/>
      <point x="467" y="436" type="curve" smooth="yes"/>
      <point x="467" y="357"/>
      <point x="420" y="316"/>
      <point x="348" y="301" type="curve"/>
      <point x="495" y="108" type="line"/>
      <point x="335" y="108" type="line"/>
      <point x="185" y="298" type="line"/>
      <point x="185" y="108" type="line"/>
    </contour>
    <contour>
      <point x="252" y="493" type="curve" smooth="yes"/>
      <point x="185" y="493" type="line"/>
      <point x="185" y="378" type="line"/>
      <point x="252" y="378" type="line" smooth="yes"/>
      <point x="290" y="378"/>
      <point x="322" y="388"/>
      <point x="322" y="436" type="curve" smooth="yes"/>
      <point x="322" y="484"/>
      <point x="290" y="493"/>
    </contour>
  </outline>
</glyph>
<glyph name="T" format="1">
  <advance width="480"/>
  <unicode hex="0054"/>
  <outline>
    <contour>
      <point x="20" y="488" type="line"/>
      <point x="20" y="608" type="line"/>
      <point x="460" y="608" type="line"/>
      <point x="460" y="488" type="line"/>
      <point x="310" y="488" type="line"/>
      <point x="310" y="108" type="line"/>
      <point x="170" y="108" type="line"/>
      <point x="170" y="488" type="line"/>
    </contour>
  </outline>
</glyph>
<glyph name="X" format="1">
  <advance width="620"/>
  <unicode hex="0058"/>
  <outline>
    <contour>
      <point x="600" y="108" type="line"/>
      <point x="430" y="108" type="line"/>
      <point x="310" y="262" type="line"/>
      <point x="190" y="108" type="line"/>
      <point x="20" y="108" type="line"/>
      <point x="225" y="371" type="line"/>
      <point x="40" y="608" type="line"/>
      <point x="210" y="608" type="line"/>
      <point x="310" y="480" type="line"/>
      <point x="410" y="608" type="line"/>
      <point x="580" y="608" type="line"/>
      <point x="395" y="371" type="line"/>
    </contour>
  </outline>
</glyph>
<glyph name="Y" format="1">
  <advance width="540"/>
  <unicode hex="0059"/>
  <outline>
    <contour>
      <point x="340" y="288" type="line"/>
      <point x="340" y="108" type="line"/>
      <point x="200" y="108" type="line"/>
      <point x="200" y="288" type="line"/>
      <point x="10" y="608" type="line"/>
      <point x="170" y="608" type="line"/>
      <point x="270" y="408" type="line"/>
      <point x="370" y="608" type="line"/>
      <point x="530" y="608" type="line"/>
    </contour>
  </outline>
</glyph>
<glyph name="backslash" format="1">
  <advance width="460"/>
  <unicode hex="005C"/>
  <outline>
    <contour>
      <point x="450" y="108" type="line"/>
      <point x="320" y="108" type="line"/>
      <point x="10" y="608" type="line"/>
      <point x="140" y="608" type="line"/>
    </contour>
  </outline>
</glyph>
<glyph name="b" format="1">
  <advance width="499"/>
  <unicode hex="0062"/>
  <outline>
    <contour>
      <point x="40" y="108" type="line"/>
      <point x="40" y="638" type="line"/>
      <point x="175" y="638" type="line"/>
      <point x="175" y="454" type="line"/>
      <point x="206" y="485"/>
      <point x="247" y="503"/>
      <point x="292" y="503" type="curve" smooth="yes"/>
      <point x="399" y="503"/>
      <point x="464" y="417"/>
      <point x="464" y="300" type="curve" smooth="yes"/>
      <point x="464" y="183"/>
      <point x="399" y="98"/>
      <point x="292" y="98" type="curve" smooth="yes"/>
      <point x="247" y="98"/>
      <point x="206" y="118"/>
      <point x="175" y="150" type="curve"/>
      <point x="175" y="108" type="line"/>
    </contour>
    <contour>
      <point x="175" y="241" type="line"/>
      <point x="194" y="217"/>
      <point x="223" y="203"/>
      <point x="252" y="203" type="curve" smooth="yes"/>
      <point x="300" y="203"/>
      <point x="329" y="242"/>
      <point x="329" y="300" type="curve" smooth="yes"/>
      <point x="329" y="358"/>
      <point x="300" y="398"/>
      <point x="252" y="398" type="curve" smooth="yes"/>
      <point x="223" y="398"/>
      <point x="194" y="383"/>
      <point x="175" y="359" type="curve"/>
    </contour>
  </outline>
</glyph>
<glyph name="e" format="1">
  <advance width="469"/>
  <unicode hex="0065"/>
  <outline>
    <contour>
      <point x="40" y="300" type="curve" smooth="yes"/>
      <point x="40" y="427"/>
      <point x="125" y="503"/>
      <point x="242" y="503" type="curve" smooth="yes"/>
      <point x="359" y="503"/>
      <point x="434" y="427"/>
      <point x="434" y="320" type="curve"/>
      <point x="192" y="231" type="line"/>
      <point x="208" y="211"/>
      <point x="231" y="198"/>
      <point x="262" y="198" type="curve" smooth="yes"/>
      <point x="305" y="198"/>
      <point x="332" y="222"/>
      <point x="354" y="256" type="curve"/>
      <point x="414" y="163" type="line"/>
      <point x="378" y="119"/>
      <point x="320" y="98"/>
      <point x="252" y="98" type="curve" smooth="yes"/>
      <point x="135" y="98"/>
      <point x="40" y="173"/>
    </contour>
    <contour>
      <point x="318" y="374" type="line"/>
      <point x="303" y="394"/>
      <point x="279" y="407"/>
      <point x="245" y="407" type="curve" smooth="yes"/>
      <point x="190" y="407"/>
      <point x="168" y="361"/>
      <point x="165" y="316" type="curve"/>
    </contour>
  </outline>
</glyph>
<glyph name="f" format="1">
  <advance width="333"/>
  <unicode hex="0066"/>
  <outline>
    <contour>
      <point x="199" y="108" type="line"/>
      <point x="64" y="108" type="line"/>
      <point x="64" y="393" type="line"/>
      <point x="20" y="393" type="line"/>
      <point x="20" y="493" type="line"/>
      <point x="64" y="493" type="line"/>
      <point x="64" y="496" type="line" smooth="yes"/>
      <point x="64" y="593"/>
      <point x="149" y="648"/>
      <point x="226" y="648" type="curve" smooth="yes"/>
      <point x="293" y="648"/>
      <point x="323" y="633"/>
      <point x="373" y="586" type="curve"/>
      <point x="333" y="486" type="line"/>
      <point x="293" y="524"/>
      <point x="264" y="538"/>
      <point x="246" y="538" type="curve" smooth="yes"/>
      <point x="223" y="538"/>
      <point x="206" y="529"/>
      <point x="201" y="493" type="curve"/>
      <point x="285" y="493" type="line"/>
      <point x="285" y="393" type="line"/>
      <point x="199" y="393" type="line"/>
    </contour>
  </outline>
</glyph>
<glyph name="i" format="1">
  <advance width="271"/>
  <unicode hex="0069"/>
  <outline>
    <contour>
      <point x="68" y="108" type="line"/>
      <point x="68" y="493" type="line"/>
      <point x="203" y="493" type="line"/>
      <point x="203" y="108" type="line"/>
    </contour>
    <contour>
      <point x="135" y="550" type="line"/>
      <point x="40" y="645" type="line"/>
      <point x="135" y="741" type="line"/>
      <point x="231" y="645" type="line"/>
    </contour>
  </outline>
</glyph>
<glyph name="j" format="1">
  <advance width="277"/>
  <unicode hex="006A"/>
  <outline>
    <contour>
      <point x="74" y="493" type="line"/>
      <point x="209" y="493" type="line"/>
      <point x="209" y="12" type="line" smooth="yes"/>
      <point x="209" y="-85"/>
      <point x="124" y="-140"/>
      <point x="47" y="-140" type="curve" smooth="yes"/>
      <point x="-20" y="-140"/>
      <point x="-50" y="-125"/>
      <point x="-100" y="-78" type="curve"/>
      <point x="-60" y="22" type="line"/>
      <point x="-20" y="-16"/>
      <point x="9" y="-30"/>
      <point x="27" y="-30" type="curve" smooth="yes"/>
      <point x="55" y="-30"/>
      <point x="74" y="-16"/>
      <point x="74" y="42" type="curve" smooth="yes"/>
    </contour>
    <contour>
      <point x="141" y="550" type="line"/>
      <point x="46" y="645" type="line"/>
      <point x="141" y="741" type="line"/>
      <point x="237" y="645" type="line"/>
    </contour>
  </outline>
</glyph>
<glyph name="l" format="1">
  <advance width="215"/>
  <unicode hex="006C"/>
  <outline>
    <contour>
      <point x="40" y="108" type="line"/>
      <point x="40" y="638" type="line"/>
      <point x="175" y="638" type="line"/>
      <point x="175" y="108" type="line"/>
    </contour>
  </outline>
</glyph>
<glyph name="q" format="1">
  <advance width="499"/>
  <unicode hex="0071"/>
  <outline>
    <contour>
      <point x="464" y="493" type="line"/>
      <point x="464" y="-37" type="line"/>
      <point x="329" y="-37" type="line"/>
      <point x="329" y="147" type="line"/>
      <point x="298" y="116"/>
      <point x="257" y="98"/>
      <point x="212" y="98" type="curve" smooth="yes"/>
      <point x="105" y="98"/>
      <point x="40" y="184"/>
      <point x="40" y="301" type="curve" smooth="yes"/>
      <point x="40" y="418"/>
      <point x="105" y="503"/>
      <point x="212" y="503" type="curve" smooth="yes"/>
      <point x="257" y="503"/>
      <point x="298" y="483"/>
      <point x="329" y="451" type="curve"/>
      <point x="329" y="493" type="line"/>
    </contour>
    <contour>
      <point x="329" y="360" type="line"/>
      <point x="310" y="384"/>
      <point x="281" y="398"/>
      <point x="252" y="398" type="curve" smooth="yes"/>
      <point x="204" y="398"/>
      <point x="175" y="359"/>
      <point x="175" y="301" type="curve" smooth="yes"/>
      <point x="175" y="243"/>
      <point x="204" y="203"/>
      <point x="252" y="203" type="curve" smooth="yes"/>
      <point x="281" y="203"/>
      <point x="310" y="218"/>
      <point x="329" y="242" type="curve"/>
    </contour>
  </outline>
</glyph>
<glyph name="t" format="1">
  <advance width="325"/>
  <unicode hex="0074"/>
  <outline>
    <contour>
      <point x="20" y="393" type="line"/>
      <point x="20" y="493" type="line"/>
      <point x="90" y="493" type="line"/>
      <point x="90" y="558" type="line"/>
      <point x="225" y="618" type="line"/>
      <point x="225" y="493" type="line"/>
      <point x="305" y="493" type="line"/>
      <point x="305" y="393" type="line"/>
      <point x="225" y="393" type="line"/>
      <point x="225" y="108" type="line"/>
      <point x="90" y="108" type="line"/>
      <point x="90" y="393" type="line"/>
    </contour>
  </outline>
</glyph>
<glyph name="x" format="1">
  <advance width="465"/>
  <unicode hex="0078"/>
  <outline>
    <contour>
      <point x="232" y="406" type="line"/>
      <point x="300" y="493" type="line"/>
      <point x="455" y="493" type="line"/>
      <point x="310" y="307" type="line"/>
      <point x="465" y="108" type="line"/>
      <point x="310" y="108" type="line"/>
      <point x="232" y="207" type="line"/>
      <point x="155" y="108" type="line"/>
      <point x="0" y="108" type="line"/>
      <point x="155" y="307" type="line"/>
      <point x="10" y="493" type="line"/>
      <point x="165" y="493" type="line"/>
    </contour>
  </outline>
</glyph>
<glyph name="z" format="1">
  <advance width="425"/>
  <unicode hex="007A"/>
  <outline>
    <contour>
      <point x="55" y="363" type="line"/>
      <point x="55" y="493" type="line"/>
      <point x="175" y="493"/>
      <point x="295" y="493"/>
      <point x="415" y="493" type="curve"/>
      <point x="236" y="238" type="line"/>
      <point x="390" y="238" type="line"/>
      <point x="390" y="108" type="line"/>
      <point x="263" y="108"/>
      <point x="137" y="108"/>
      <point x="10" y="108" type="curve"/>
      <point x="189" y="363" type="line"/>
    </contour>
  </outline>
</glyph>
<glyph name="quotedblleft" format="1">
  <advance width="430"/>
  <unicode hex="201C"/>
  <outline>
    <contour>
      <point x="385" y="648" type="line"/>
      <point x="385" y="388" type="line"/>
      <point x="255" y="388" type="line"/>
      <point x="255" y="528" type="line"/>
    </contour>
    <contour>
      <point x="175" y="648" type="line"/>
      <point x="175" y="388" type="line"/>
      <point x="45" y="388" type="line"/>
      <point x="45" y="528" type="line"/>
    </contour>
  </outline>
</glyph>
